<?xml version="1.0" standalone="no"?>
<!DOCTYPE svg PUBLIC "-//W3C//DTD SVG 20010904//EN"
 "http://www.w3.org/TR/2001/REC-SVG-20010904/DTD/svg10.dtd">
<svg version="1.0" xmlns="http://www.w3.org/2000/svg"
 width="254.000000pt" height="300.000000pt" viewBox="0 0 254.000000 300.000000"
 preserveAspectRatio="xMidYMid meet">

<g transform="translate(0.000000,300.000000) scale(0.100000,-0.100000)"
fill="#000000" stroke="none">
<path d="M65 2988 c-11 -34 -36 -295 -45 -478 -6 -113 -12 -210 -14 -216 -8
-22 15 -334 35 -471 65 -456 225 -837 493 -1168 130 -162 437 -439 653 -589
l82 -57 58 42 c227 165 358 274 503 419 137 137 287 329 371 475 40 69 119
226 119 236 0 5 9 28 19 52 11 23 21 51 23 62 2 11 6 22 10 25 3 3 8 14 10 25
1 11 6 22 10 25 4 3 9 17 11 30 3 14 10 37 16 53 6 15 8 27 5 27 -2 0 0 9 6
21 7 11 13 33 14 47 2 15 6 34 10 42 3 9 8 29 9 45 1 17 5 33 10 36 4 3 9 28
11 55 2 27 6 60 9 74 3 14 8 48 11 75 3 28 11 102 17 165 16 160 8 568 -12
581 -12 7 -12 9 1 9 9 0 11 3 5 8 -5 4 -11 43 -12 86 -2 51 -7 83 -15 88 -10
6 -9 8 2 8 9 0 11 3 5 8 -5 4 -11 34 -12 66 -1 33 -7 63 -14 66 -8 6 -7 9 2
13 11 4 11 6 1 6 -7 1 -10 6 -7 11 4 7 -397 10 -1195 10 -952 0 -1202 -3
-1205 -12z m2370 -50 c2 -7 12 -87 22 -178 25 -233 25 -702 0 -893 -20 -153
-71 -371 -118 -511 -46 -133 -156 -355 -239 -481 -172 -260 -372 -465 -686
-701 -71 -53 -134 -99 -141 -101 -16 -6 -257 174 -378 282 -418 371 -650 748
-770 1249 -52 217 -80 529 -72 776 6 156 27 411 43 528 l6 42 1164 0 c923 0
1166 -3 1169 -12z"/>
<path d="M1415 2815 c-124 -33 -154 -187 -52 -269 36 -28 44 -31 117 -31 85 0
112 12 154 69 30 39 29 133 0 173 -44 59 -130 82 -219 58z m98 -66 c31 -17 37
-28 37 -79 0 -63 -21 -90 -70 -90 -49 0 -70 27 -70 90 0 50 5 61 35 78 26 15
41 15 68 1z"/>
<path d="M538 2703 c-3 -114 -4 -118 -25 -121 -18 -3 -23 -10 -23 -33 0 -21 5
-29 18 -30 38 -2 88 3 104 12 23 13 38 71 38 152 l0 67 40 0 40 0 0 -115 0
-115 55 0 55 0 0 150 0 150 -150 0 -149 0 -3 -117z"/>
<path d="M910 2670 l0 -150 53 0 52 1 60 80 60 79 3 -80 3 -80 49 0 50 0 0
150 0 150 -49 0 -49 0 -58 -79 c-33 -44 -62 -80 -66 -80 -5 -1 -8 35 -8 79 l0
80 -50 0 -50 0 0 -150z"/>
<path d="M1720 2670 l0 -150 50 0 50 0 0 60 0 60 60 0 60 0 0 -60 0 -60 55 0
55 0 0 151 0 150 -52 -3 -53 -3 -3 -53 -3 -53 -57 3 -57 3 -3 53 -3 52 -50 0
-49 0 0 -150z"/>
<path d="M1365 2356 c-24 -14 -65 -27 -102 -31 -34 -4 -67 -13 -74 -21 -6 -8
-30 -14 -53 -14 -22 0 -57 -3 -78 -6 -36 -6 -36 -7 -43 -64 -4 -34 -3 -66 3
-76 8 -15 1 -22 -47 -44 -56 -27 -83 -50 -94 -82 -10 -27 10 -31 42 -9 33 24
115 39 125 23 10 -17 -15 -72 -34 -72 -29 0 -103 -29 -142 -57 l-38 -25 -42
20 c-24 11 -70 25 -103 32 -73 15 -81 21 -90 67 -5 28 -3 38 9 45 35 20 13 80
-35 97 -50 17 -73 13 -109 -19 -18 -16 -41 -30 -49 -30 -9 0 -25 -7 -35 -15
-11 -8 -27 -15 -36 -15 -23 0 -59 -36 -66 -66 -4 -17 -1 -31 11 -44 14 -16 16
-30 11 -82 -7 -62 -2 -98 14 -98 4 0 11 12 15 27 13 53 49 70 76 37 7 -9 43
-31 80 -50 37 -18 70 -38 73 -43 4 -5 19 -12 34 -16 15 -3 32 -16 37 -28 6
-13 21 -23 37 -25 23 -3 29 -10 34 -39 4 -22 2 -43 -4 -52 -7 -9 -29 -44 -49
-78 -21 -35 -42 -63 -47 -63 -5 0 -26 16 -47 35 -38 34 -40 35 -101 29 -60 -6
-107 -27 -116 -52 -2 -8 6 -10 27 -6 43 9 41 -14 -4 -53 -25 -23 -35 -40 -35
-62 0 -33 15 -49 23 -27 3 8 1 16 -5 18 -8 3 -7 11 1 26 12 23 36 20 27 -3 -3
-8 0 -16 7 -18 9 -3 7 -13 -5 -35 -20 -34 -23 -65 -8 -93 15 -26 28 -24 23 4
-3 14 3 29 14 40 16 14 24 15 51 5 18 -7 32 -18 32 -25 0 -17 6 -16 66 2 27 9
83 20 124 26 146 19 162 26 199 83 15 25 47 61 71 81 36 30 50 36 74 32 39 -7
136 -40 136 -47 0 -3 -31 -18 -68 -35 -50 -22 -84 -46 -134 -99 -38 -38 -68
-74 -68 -81 0 -6 18 -26 40 -44 41 -32 76 -86 62 -94 -4 -3 -34 -8 -67 -11
-59 -6 -60 -6 -80 26 -13 21 -31 34 -51 39 -17 3 -42 13 -55 22 -31 22 -62 21
-90 -3 l-24 -19 33 -1 c42 0 38 -21 -6 -32 -18 -5 -40 -21 -49 -36 -10 -15
-25 -35 -34 -45 -20 -22 -32 -77 -23 -101 7 -19 24 -21 24 -3 0 20 35 57 54
57 18 0 21 -21 6 -36 -13 -13 -31 -74 -21 -74 4 0 12 5 18 11 8 8 94 12 275
13 l263 1 7 53 c5 30 15 60 23 69 21 21 55 88 69 137 11 38 15 41 60 49 39 6
52 5 67 -9 36 -32 18 -135 -30 -178 -11 -11 -21 -22 -21 -25 0 -8 48 -37 85
-51 25 -10 27 -9 21 13 -3 13 -1 36 3 52 8 26 9 22 10 -27 l1 -57 35 -7 c20
-3 78 -4 130 -2 66 3 95 0 95 -7 0 -24 -32 -104 -46 -116 -11 -9 -26 -8 -70 6
-55 17 -56 17 -84 -3 -15 -12 -39 -24 -53 -27 -46 -12 -97 -97 -64 -108 9 -3
9 -7 -2 -20 -19 -24 -30 -21 -24 5 4 19 3 20 -6 8 -6 -8 -11 -25 -11 -37 0
-21 1 -22 28 -6 30 17 68 11 56 -8 -5 -9 1 -10 22 -4 16 5 100 9 188 10 183 1
186 3 186 91 0 46 5 58 39 99 21 26 45 67 51 91 7 24 32 72 56 106 57 81 60
121 9 142 -19 8 -35 19 -35 24 0 4 13 18 30 30 47 35 72 95 73 172 0 36 -5 76
-12 89 -8 14 -15 52 -16 85 l-3 60 -83 78 c-46 43 -91 78 -100 78 -9 0 -35 20
-58 45 -36 39 -44 43 -61 33 -10 -7 -24 -22 -31 -35 -19 -35 -35 -28 -49 21
-11 39 -10 49 8 90 37 83 136 101 186 33 18 -24 19 -31 7 -60 -27 -68 -28 -67
26 -67 l49 0 17 -53 c9 -30 26 -62 37 -72 19 -17 20 -17 28 6 5 13 13 38 16
56 9 39 19 48 73 62 24 7 51 23 62 38 21 26 27 45 14 41 -26 -6 -102 19 -167
57 -42 24 -76 40 -75 37 1 -19 89 -74 150 -94 38 -12 69 -26 69 -30 0 -5 -11
-14 -25 -20 -19 -9 -31 -8 -52 3 -16 7 -31 15 -35 17 -5 2 -8 -9 -8 -25 0 -34
-28 -123 -39 -123 -15 0 -41 72 -41 113 0 40 0 41 -16 19 -8 -12 -26 -22 -40
-22 -24 0 -32 14 -14 25 18 11 12 93 -9 114 -27 27 -92 45 -134 37 -78 -15
-113 -75 -104 -179 8 -94 60 -151 70 -77 5 43 22 70 41 70 11 0 26 -26 67
-112 27 -56 39 -61 39 -16 0 43 21 23 29 -28 7 -41 31 -60 31 -24 0 27 24 22
28 -6 7 -46 13 -64 21 -60 4 3 6 19 3 36 -2 17 0 30 7 30 18 0 31 -37 31 -90
0 -35 8 -65 25 -98 39 -73 29 -154 -26 -213 -28 -31 -32 -32 -92 -27 -62 5
-123 29 -179 71 -37 27 -43 18 -15 -24 18 -27 37 -39 99 -60 73 -24 117 -56
118 -86 0 -16 20 -17 20 -2 0 17 42 6 54 -14 9 -15 6 -23 -21 -47 -17 -15 -40
-48 -51 -72 -10 -23 -39 -62 -63 -86 -30 -29 -38 -42 -26 -42 27 0 20 -20 -22
-60 -38 -36 -38 -38 -20 -54 24 -20 26 -81 3 -90 -23 -9 -69 -7 -79 3 -10 10
-192 -2 -232 -14 -15 -5 -23 -3 -23 4 0 6 13 14 28 17 16 3 34 17 45 35 9 17
30 35 47 40 44 16 37 31 -12 27 -34 -2 -43 0 -46 15 -3 14 4 17 33 17 20 0 49
-7 65 -16 15 -10 35 -14 43 -11 9 3 33 44 55 90 22 47 49 94 61 106 l21 21
-87 -2 c-98 -3 -154 15 -227 74 -42 34 -45 32 -68 -29 -11 -31 -27 -41 -40
-27 -4 3 2 25 13 49 11 24 22 65 25 92 3 26 22 81 41 120 25 51 33 80 29 98
-10 38 -24 30 -33 -17 -7 -36 -13 -44 -34 -46 -20 -2 -40 12 -99 75 -41 43
-74 81 -73 85 3 7 -52 28 -73 28 -7 0 -39 10 -70 21 -50 19 -55 23 -40 34 15
11 14 13 -11 18 -20 4 -35 -1 -53 -17 -48 -43 -99 -69 -114 -57 -11 9 -15 4
-21 -25 -11 -64 -45 -100 -45 -49 0 35 -17 31 -25 -5 -8 -36 -25 -40 -25 -5 0
14 -4 25 -10 25 -5 0 -10 -11 -10 -24 0 -13 -7 -29 -15 -36 -13 -11 -15 -8
-15 15 0 33 -24 29 -28 -6 -2 -13 -9 -30 -14 -36 -19 -24 -29 -13 -22 22 7 40
-12 50 -22 11 -4 -16 -21 -33 -45 -45 -48 -25 -59 -26 -59 -5 0 11 -5 14 -18
9 -38 -16 -53 -17 -67 -5 -9 7 -26 10 -42 6 -22 -5 -24 -4 -11 4 9 6 22 26 28
45 8 24 19 37 37 41 17 5 21 10 14 17 -8 8 -21 6 -46 -6 -45 -21 -45 -21 -45
3 0 28 41 52 76 45 l29 -6 -29 17 c-28 16 -29 17 -11 30 38 28 87 12 103 -35
l10 -29 -31 9 c-43 12 -44 12 -19 -11 25 -24 50 -25 97 -6 23 10 35 22 35 34
0 11 27 55 60 98 64 83 69 94 45 94 -11 0 -15 12 -15 50 0 49 0 49 -26 40 -39
-15 -44 -13 -44 20 0 28 -2 30 -27 24 -46 -11 -48 -10 -48 16 0 19 -4 24 -20
22 -11 -2 -24 -5 -30 -5 -5 -1 -9 8 -8 21 3 21 0 22 -32 16 -34 -6 -35 -6 -29
22 l5 29 -59 0 c-57 0 -61 -2 -83 -34 -13 -18 -25 -28 -27 -22 -2 6 6 24 17
40 13 18 17 32 11 36 -15 9 -12 45 4 51 8 3 45 9 83 13 66 8 66 8 18 10 -28 0
-56 6 -63 13 -19 19 -14 55 10 72 34 24 67 19 98 -14 36 -38 45 -38 25 -1 -14
28 -14 31 9 55 29 32 61 33 77 4 10 -18 8 -24 -11 -38 -21 -16 -22 -20 -11
-53 7 -20 10 -41 6 -46 -8 -13 53 -43 143 -70 71 -21 76 -26 72 -66 -1 -16 5
-13 37 17 71 69 177 104 323 109 41 1 87 6 101 11 30 10 52 51 44 79 -8 26
-28 24 -40 -3 -16 -36 -56 -50 -125 -42 -56 6 -72 15 -51 28 5 3 7 16 3 29 -5
21 -4 21 15 5 42 -38 103 -9 103 48 0 19 -2 34 -5 34 -5 0 -18 -6 -67 -31 -17
-9 -23 -9 -26 0 -2 6 -17 18 -33 26 -27 14 -29 19 -26 70 l2 54 47 6 c26 4 55
4 66 1 12 -4 25 1 38 15 16 17 28 20 80 17 56 -2 64 0 89 25 35 34 51 34 63
-1 9 -28 1 -65 -17 -76 -7 -5 -5 -19 6 -41 19 -40 11 -56 -15 -32 -29 27 -34
7 -7 -25 14 -16 25 -37 25 -46 0 -12 -7 -9 -25 13 -23 28 -24 29 -25 8 0 -14
-6 -23 -16 -23 -13 0 -12 -5 5 -29 21 -30 29 -87 11 -76 -5 3 -10 16 -10 28 0
24 -16 54 -24 47 -2 -3 1 -24 7 -48 8 -32 8 -45 -1 -54 -9 -9 -12 -9 -12 0 0
7 -4 12 -10 12 -5 0 -10 -12 -10 -26 0 -21 -4 -25 -19 -21 -12 3 -22 -1 -25
-10 -4 -8 -12 -13 -19 -10 -8 3 -19 -4 -26 -15 -10 -16 -15 -17 -28 -7 -12 11
-17 10 -24 -4 -13 -22 -39 -22 -39 0 0 13 -3 14 -12 5 -16 -16 -55 -15 -61 1
-4 10 -7 10 -18 0 -7 -7 -21 -13 -31 -13 -10 0 -18 -5 -18 -11 0 -7 10 -9 24
-5 14 3 27 2 30 -3 8 -12 165 -5 201 9 16 6 43 22 60 34 16 13 44 30 62 39 25
14 37 32 62 97 17 43 31 88 31 100 0 11 5 20 10 20 17 0 96 -78 88 -86 -4 -4
-14 -1 -23 6 -29 24 -29 0 1 -31 l29 -31 -28 13 c-40 18 -44 4 -8 -27 17 -14
39 -40 48 -58 14 -28 11 -26 -22 12 -33 38 -65 55 -65 33 0 -4 14 -25 30 -46
39 -49 38 -54 -5 -16 l-35 31 -33 -19 c-17 -10 -31 -22 -29 -27 15 -50 22 -87
18 -92 -3 -3 -11 9 -17 26 -6 18 -17 32 -25 32 -10 0 -12 -15 -9 -67 l5 -68
-16 43 c-17 45 -34 48 -34 5 0 -21 -2 -24 -15 -13 -13 11 -15 8 -15 -16 -1
-26 -2 -27 -14 -11 -7 9 -18 17 -24 17 -14 0 -32 -33 -32 -58 0 -11 -7 -25
-15 -32 -13 -11 -15 -7 -15 29 0 22 -4 41 -10 41 -5 0 -10 -9 -10 -20 0 -11
-14 -34 -30 -52 l-31 -33 7 48 c4 30 3 47 -4 47 -6 0 -13 -8 -16 -18 -8 -23
-64 -78 -72 -70 -3 3 0 25 6 48 13 48 7 63 -10 28 -16 -29 -51 -68 -62 -68 -5
0 3 20 17 43 27 47 30 57 16 57 -5 0 -19 -15 -30 -34 -26 -42 -57 -58 -46 -24
15 49 17 68 8 68 -5 0 -15 -11 -21 -25 -19 -41 -34 -30 -30 20 3 38 1 43 -9
29 -7 -10 -15 -34 -19 -53 -5 -35 -15 -69 -29 -103 -5 -13 -2 -15 13 -11 11 2
23 0 26 -6 4 -6 23 -11 43 -11 20 0 44 -7 53 -15 14 -12 23 -13 45 -5 20 7 31
8 39 0 16 -16 41 -12 70 11 32 25 43 20 26 -12 -12 -21 -11 -22 26 -14 22 4
62 7 89 6 28 0 67 5 87 11 34 10 41 9 78 -17 23 -16 67 -58 98 -94 101 -116
165 -175 246 -226 65 -40 89 -50 136 -53 55 -4 58 -3 80 29 51 71 18 182 -85
285 -46 47 -71 63 -107 72 -57 15 -112 15 -157 2 -36 -10 -55 -5 -32 9 10 7
11 16 3 42 -45 141 -18 273 66 322 41 24 133 26 186 3 51 -22 59 -13 9 12 -85
43 -161 35 -221 -22 l-33 -31 7 41 c9 60 -21 120 -83 170 -56 44 -86 103 -88
170 0 42 -18 74 -39 74 -6 0 -29 -11 -51 -24z m95 -147 c0 -6 -4 -7 -10 -4 -5
3 -10 11 -10 16 0 6 5 7 10 4 6 -3 10 -11 10 -16z m-379 -123 c-6 -8 -33 -17
-59 -21 -26 -3 -64 -15 -85 -26 -44 -23 -46 -7 -3 25 18 14 43 21 77 22 27 0
52 3 56 7 13 13 25 7 14 -7z m79 -17 c0 -15 -30 -23 -42 -11 -6 6 -7 15 -4 20
7 12 46 4 46 -9z m-840 -63 c0 -3 -4 -8 -10 -11 -5 -3 -10 -1 -10 4 0 6 5 11
10 11 6 0 10 -2 10 -4z m1195 -113 c33 -49 33 -77 -1 -32 -36 49 -47 69 -35
69 6 0 22 -17 36 -37z m58 -144 c-5 -30 -7 -86 -5 -125 l4 -72 47 13 c124 33
271 -35 342 -159 76 -134 -7 -227 -132 -147 -68 43 -342 321 -357 361 -2 4 10
21 26 36 16 16 39 57 52 91 14 34 26 60 28 59 1 -2 -1 -28 -5 -57z m-99 -6
c-3 -27 -11 -55 -16 -63 -9 -15 -3 53 8 93 10 34 15 16 8 -30z m-238 -393 c16
-6 40 -26 54 -46 13 -20 48 -50 77 -66 29 -16 53 -34 53 -38 0 -16 -21 -22
-35 -10 -9 8 -36 9 -84 4 l-71 -7 0 -31 c0 -48 -50 -140 -78 -144 -20 -3 -21
-7 -16 -41 7 -42 -8 -81 -31 -81 -8 0 -15 9 -15 20 0 11 -3 20 -8 20 -4 0 -13
-9 -20 -20 -7 -11 -17 -20 -22 -20 -6 0 -10 9 -10 20 0 26 -8 25 -37 -2 l-23
-21 0 21 c0 28 -13 28 -33 0 -15 -23 -15 -23 -31 -3 -15 19 -17 19 -30 3 -20
-26 -64 -24 -68 4 -3 19 -5 20 -18 6 -9 -8 -25 -20 -36 -26 -27 -14 -104 -4
-104 14 0 22 38 54 62 54 20 0 21 1 6 16 -14 14 -18 14 -48 -1 -17 -9 -39 -14
-48 -10 -9 3 -26 -5 -44 -22 -48 -46 -34 -1 16 51 38 39 50 46 84 46 46 0 56
7 36 27 -21 22 -12 25 38 18 59 -9 69 -16 77 -56 5 -23 12 -32 22 -29 8 3 51
4 97 3 l82 -1 0 79 c0 46 -4 79 -10 79 -5 0 -10 -4 -10 -9 0 -10 -30 -24 -37
-17 -2 2 7 16 21 31 35 38 32 49 -6 25 -32 -19 -65 -29 -43 -12 6 4 23 21 38
39 32 35 22 54 -11 22 -12 -11 -22 -15 -22 -8 0 20 72 81 125 105 53 25 114
30 161 14z m272 -412 c6 -23 7 -38 1 -38 -13 0 -31 50 -24 68 7 19 11 15 23
-30z m-3 -258 c20 -33 -42 -84 -71 -59 -17 14 -18 41 -2 57 15 15 64 16 73 2z"/>
<path d="M1210 2232 c0 -12 5 -22 10 -22 19 0 10 -21 -12 -30 -22 -9 -22 -9 3
-9 36 -1 47 36 19 64 -20 19 -20 19 -20 -3z"/>
</g>
</svg>
